HIERARCHY
ROOT root
{
	OFFSET 0.000000 0.000000 0.000000
	CHANNELS 6 Xposition Yposition Zposition Zrotation Yrotation Xrotation
	JOINT lhip
	{
		OFFSET 0.058581 -0.082280 -0.017664
		CHANNELS 3 Zrotation Yrotation Xrotation
		JOINT lknee
		{
			OFFSET 0.043451 -0.386469 0.008037
			CHANNELS 3 Zrotation Yrotation Xrotation
			JOINT lankle
			{
				OFFSET -0.014790 -0.426874 -0.037428
				CHANNELS 3 Zrotation Yrotation Xrotation
				JOINT ltoe
				{
					OFFSET 0.041054 -0.060286 0.122042
					CHANNELS 3 Zrotation Yrotation Xrotation
					End Site
					{
						OFFSET 0.000000 0.000000 0.000000
					}
				}
			}
		}
	}
	JOINT rhip
	{
		OFFSET -0.060310 -0.090513 -0.013543
		CHANNELS 3 Zrotation Yrotation Xrotation
		JOINT rknee
		{
			OFFSET -0.043257 -0.383688 -0.004843
			CHANNELS 3 Zrotation Yrotation Xrotation
			JOINT rankle
			{
				OFFSET 0.019056 -0.420046 -0.034562
				CHANNELS 3 Zrotation Yrotation Xrotation
				JOINT rtoe
				{
					OFFSET -0.034840 -0.062106 0.130323
					CHANNELS 3 Zrotation Yrotation Xrotation
					End Site
					{
						OFFSET 0.000000 0.000000 0.000000
					}
				}
			}
		}
	}
	JOINT lowerback
	{
		OFFSET 0.004439 0.124404 -0.038385
		CHANNELS 3 Zrotation Yrotation Xrotation
		JOINT upperback
		{
			OFFSET 0.004488 0.137956 0.026820
			CHANNELS 3 Zrotation Yrotation Xrotation
			JOINT chest
			{
				OFFSET -0.002265 0.056032 0.002855
				CHANNELS 3 Zrotation Yrotation Xrotation
				JOINT lowerneck
				{
					OFFSET -0.013390 0.211636 -0.033468
					CHANNELS 3 Zrotation Yrotation Xrotation
					JOINT upperneck
					{
						OFFSET 0.010113 0.088937 0.050410
						CHANNELS 3 Zrotation Yrotation Xrotation
						End Site
						{
							OFFSET 0.000000 0.000000 0.000000
						}
					}
				}
				JOINT lclavicle
				{
					OFFSET 0.071702 0.114000 -0.018898
					CHANNELS 3 Zrotation Yrotation Xrotation
					JOINT lshoulder
					{
						OFFSET 0.122921 0.045205 -0.019046
						CHANNELS 3 Zrotation Yrotation Xrotation
						JOINT lelbow
						{
							OFFSET 0.255332 -0.015649 -0.022946
							CHANNELS 3 Zrotation Yrotation Xrotation
							JOINT lwrist
							{
								OFFSET 0.265709 0.012698 -0.007375
								CHANNELS 3 Zrotation Yrotation Xrotation
								End Site
								{
									OFFSET 0.000000 0.000000 0.000000
								}
							}
						}
					}
				}
				JOINT rclavicle
				{
					OFFSET -0.082954 0.112472 -0.023707
					CHANNELS 3 Zrotation Yrotation Xrotation
					JOINT rshoulder
					{
						OFFSET -0.113228 0.046853 -0.008472
						CHANNELS 3 Zrotation Yrotation Xrotation
						JOINT relbow
						{
							OFFSET -0.260127 -0.014369 -0.031269
							CHANNELS 3 Zrotation Yrotation Xrotation
							JOINT rwrist
							{
								OFFSET -0.269108 0.006794 -0.006027
								CHANNELS 3 Zrotation Yrotation Xrotation
								End Site
								{
									OFFSET 0.000000 0.000000 0.000000
								}
							}
						}
					}
				}
			}
		}
	}
}
MOTION
Frames: 11
Frame Time: 0.033333
0.988395 0.781610 0.960951 -88.857710 0.966107 96.254863 5.851082 -8.523646 -23.046786 -3.890439 -4.521257 31.383681 1.880219 17.102023 -17.711447 0.000000 -0.000000 0.000000 -7.015520 3.512021 -13.414356 0.635498 3.143876 41.282020 10.526288 -6.296189 -22.635216 0.000000 -0.000000 0.000000 -6.462815 10.391970 19.171005 1.915043 0.187236 2.915416 1.592749 1.687634 1.467457 4.617414 0.693845 -2.059454 3.661435 -13.725521 2.994362 -16.521958 -4.408386 2.942260 -46.680758 4.060418 4.686792 13.022551 -27.916460 12.173187 6.293674 4.651557 8.297897 21.337321 10.309933 0.894393 50.671680 4.671999 9.714768 -22.492014 45.813625 0.367777 -3.043076 -1.565122 -0.257551 
0.966113 0.778454 0.964924 -87.146490 0.944901 96.029306 5.134399 -7.660892 -20.337226 -4.036488 -6.137379 29.339106 1.383974 17.103439 -18.930212 0.000000 -0.000000 0.000000 -7.459421 4.069428 -17.668507 0.116132 3.169348 41.556677 11.137124 -7.737992 -20.990804 0.000000 -0.000000 0.000000 -5.908979 8.404547 20.584815 2.342557 -0.392304 2.483253 1.920620 0.895677 1.837894 3.981948 0.240646 -1.657892 4.390458 -12.847837 2.968711 -16.619803 -5.519714 2.735610 -44.254196 0.752693 5.490545 11.963842 -31.018139 11.294007 8.785676 3.613974 8.354068 21.260754 9.181084 0.661583 49.942410 1.505064 10.008149 -20.889455 43.860093 0.402527 -3.616456 -1.538812 0.552792 
0.943057 0.777046 0.966779 -85.671677 1.054871 95.461375 4.730589 -6.553032 -17.272271 -4.176063 -7.885901 27.658448 1.115374 16.731078 -19.890674 0.000000 -0.000000 0.000000 -7.897131 4.128930 -21.488753 -0.951147 2.788221 40.942053 11.101033 -8.976139 -19.582148 0.000000 -0.000000 0.000000 -5.330273 6.588793 22.050211 2.755538 -1.005103 1.945170 2.398839 0.174726 2.317227 3.283085 0.164346 -0.972680 5.424260 -12.124578 2.755023 -16.338581 -7.024508 2.223027 -42.659595 -2.895109 5.908980 11.786106 -33.277833 9.505713 10.139637 3.078847 7.961942 21.182698 8.083391 0.681674 49.550901 -1.886520 9.874488 -19.708590 42.232619 0.269047 -3.820937 -1.883055 1.171386 
0.918906 0.777333 0.966380 -84.181183 1.132586 94.874868 4.668499 -5.516245 -14.465333 -4.462693 -9.609341 26.727406 1.066019 16.311415 -21.189006 0.000000 -0.000000 0.000000 -8.545321 3.226929 -25.202263 -1.810851 1.945053 39.865448 10.962391 -10.213871 -16.428953 0.000000 -0.000000 0.000000 -4.747157 4.889309 23.010646 3.182022 -1.765889 1.679296 2.773260 -0.692697 2.562129 2.710703 0.054292 -0.290321 6.135920 -11.145682 3.074336 -16.150084 -8.631861 1.777228 -41.380715 -6.719096 5.921785 12.194129 -34.949434 8.228167 11.199131 2.666955 7.845079 21.354254 6.799907 1.140761 49.629577 -5.100182 9.624928 -19.284917 40.842227 0.191486 -4.330916 -2.171515 1.956302 
0.894105 0.779101 0.963855 -83.395465 1.196493 94.458974 4.910873 -4.639605 -12.098995 -4.942607 -10.954060 26.689366 0.981432 16.368164 -22.853054 0.000000 -0.000000 0.000000 -9.465917 2.480867 -28.825361 -2.034598 0.604386 38.124398 10.695754 -10.918358 -12.882573 0.000000 -0.000000 0.000000 -4.363888 3.314358 23.509706 3.559060 -2.445760 1.316789 3.070283 -1.592714 2.878811 1.976766 0.242332 0.273148 6.688862 -10.348658 3.733447 -15.937385 -9.647082 1.821467 -40.868455 -10.485706 5.241684 13.560750 -37.182199 6.493340 11.849399 2.153472 8.200450 21.130280 5.232156 1.811348 50.687923 -7.619588 9.218027 -19.397381 39.913797 0.281784 -4.017694 -2.869182 1.766906 
0.866656 0.782796 0.960111 -82.906447 1.472675 93.887420 5.576524 -3.934054 -9.553933 -5.222157 -11.758775 27.018012 0.995611 16.272926 -24.249460 0.000000 -0.000000 0.000000 -9.943123 1.464339 -31.437295 -1.908736 -1.103643 35.399799 10.726888 -10.923940 -8.674103 0.000000 -0.000000 0.000000 -4.006631 1.725078 23.386346 3.965118 -3.171536 1.693216 3.343476 -2.300605 3.063107 1.512146 0.455367 0.609273 6.973143 -9.435820 4.572601 -15.986034 -10.219476 1.931348 -41.131758 -14.162464 4.547418 16.295973 -39.793062 3.093237 11.233939 2.288881 7.609324 21.094063 3.691273 2.279292 51.688266 -9.501988 8.658110 -19.555713 38.892076 -0.140367 -2.343778 -3.243745 0.560927 
0.837108 0.788312 0.956110 -82.871737 1.783105 93.449526 6.352771 -3.546446 -6.976444 -5.449898 -12.257882 27.556370 1.336018 16.444902 -24.589700 0.000000 -0.000000 0.000000 -9.977095 0.446865 -33.141453 -1.248379 -2.725193 31.438515 10.930463 -10.372685 -4.426746 0.000000 -0.000000 0.000000 -3.610832 0.218834 22.806407 4.263477 -3.778304 1.917317 3.516475 -3.049919 3.271904 0.985191 0.987963 0.905944 6.937981 -8.270920 5.835951 -15.956148 -10.309216 2.454436 -42.474486 -17.273721 4.258285 19.408199 -42.655636 -0.155644 11.071527 1.977878 6.667293 20.875100 2.132331 3.016616 52.964513 -10.555609 7.963343 -19.235936 37.611016 0.390522 -1.065371 -3.647102 0.110306 
0.803756 0.795449 0.952132 -82.945281 1.905144 92.792670 7.111831 -2.864870 -4.076295 -5.463865 -12.482080 28.253311 0.683895 16.352164 -25.391557 0.000000 -0.000000 0.000000 -9.522695 -0.684818 -33.201509 -0.467446 -4.162442 26.843312 11.979054 -9.340753 -1.393826 0.000000 -0.000000 0.000000 -3.358759 -0.978386 21.939931 4.540222 -4.478417 2.068709 3.735844 -3.581056 3.447607 0.449917 1.230883 1.702725 6.726666 -7.333773 7.319255 -16.082360 -10.204690 2.585227 -44.692034 -19.749151 5.097635 21.557908 -45.057913 -1.062045 12.272978 0.392798 5.874413 20.608616 0.838366 3.241960 54.230829 -11.965899 7.396990 -18.534160 35.741028 1.878282 -0.686354 -3.595168 0.672930 
0.766766 0.804149 0.948482 -82.058944 2.022472 92.144244 8.367344 -2.643017 -1.641049 -5.763006 -13.136201 29.758870 -0.672804 14.855730 -25.224114 0.000000 -0.000000 0.000000 -8.498035 -2.181447 -31.968102 0.516310 -5.522405 22.931829 11.599723 -8.164032 1.238125 0.000000 -0.000000 0.000000 -2.650238 -2.220112 20.392959 4.932129 -5.485813 2.508270 3.728231 -4.245070 3.446024 -0.198175 1.410751 3.116723 6.488204 -6.262034 8.419453 -16.329600 -10.175107 2.951651 -47.497523 -21.459991 6.428607 22.776313 -47.091084 0.276101 11.966998 0.001720 4.569184 20.583243 -0.562426 3.961278 55.235228 -12.784073 6.435209 -17.897820 33.757905 3.279864 -0.526869 -3.844047 -0.429901 
0.728977 0.815416 0.944624 -81.508925 1.560103 91.686437 9.318917 -2.867130 -0.093318 -6.620845 -13.643006 32.662198 -2.138957 13.534786 -23.807120 0.000000 -0.000000 0.000000 -7.711603 -2.264852 -31.020125 1.184844 -5.386970 22.283500 8.874485 -8.321589 2.397572 0.000000 -0.000000 0.000000 -2.454360 -2.980774 18.238079 5.179366 -6.183732 3.268607 3.497048 -4.746836 3.447831 -1.146726 1.530925 4.140090 6.140571 -5.443371 9.685721 -16.569641 -10.127578 3.396944 -50.327940 -22.651663 7.709171 22.791330 -48.632751 2.427605 11.603910 -0.198382 3.939795 20.876234 -1.894120 4.472611 56.321759 -13.461457 5.301899 -17.497355 31.866967 3.625581 -0.199302 -4.271287 -2.218167 
0.692455 0.827272 0.941744 -81.790792 0.891327 90.785664 9.276473 -4.437309 1.087381 -7.782673 -13.961580 37.145196 -4.690734 12.799178 -21.412901 0.000000 -0.000000 0.000000 -7.058518 -0.021875 -31.966111 0.011842 -4.121548 30.786147 7.632502 -10.070475 -2.731650 0.000000 -0.000000 0.000000 -2.568687 -3.709518 17.481591 5.336388 -5.870487 3.623318 3.058239 -4.984209 3.005625 -1.375685 2.275342 4.615737 4.899040 -5.049323 10.905687 -16.914574 -10.041573 3.463582 -53.038328 -22.469030 9.482517 22.908049 -49.432432 4.361849 9.447593 0.177123 3.742631 21.294764 -2.474242 4.307819 57.464144 -14.466291 4.867733 -18.095917 29.749671 3.061395 2.504234 -4.495093 -3.252405 
